<?xml version="1.0" encoding="UTF-8"?> <svg xmlns="http://www.w3.org/2000/svg" id="Layer_1" data-name="Layer 1" viewBox="0 0 1200 500"><defs><style> .cls-1 { fill: #0b75e1; } .cls-2 { fill: #003264; } </style></defs><g><polygon class="cls-2" points="762.27 26.86 648.78 174.64 534.55 27 470.91 26.86 470.91 327.66 540.84 327.66 540.84 129.49 624.46 252.02 624.94 252.72 664.8 252.72 756.72 129.14 756.72 327.66 826.65 327.66 826.65 26.87 764.75 26.87 762.27 26.86"></polygon><path class="cls-2" d="M1155.32,116.04c-.01-48.29-44.39-87.57-98.94-87.57h-180.11v299.83h69.93l.2-97.26h110.59c54.35,0,98.57-39.15,98.57-87.29l-.23-27.72ZM1087.97,141.38c-2.58,14.31-17.59,25.1-34.95,25.1h-106.62l-.22-76.51h106.6c16.77,0,31.34,9.96,34.65,23.68.46,1.9.69,3.86.69,5.81v1.14c.05,16.31-.08,20.03-.16,20.77Z"></path><polygon class="cls-2" points="44.44 326.76 144.99 326.56 348.11 129.8 348.11 327.02 421.29 327.02 421.29 29.43 349.88 29.43 44.44 326.76"></polygon><polygon class="cls-1" points="302.26 28.47 98.5 28.47 98.5 101.65 228.22 101.65 302.26 28.47"></polygon></g><g><g><path class="cls-1" d="M372.46,470.88l18.09-55.67c.55-1.5,1.52-2.26,2.91-2.26h13.21c1.17,0,1.96.5,2.38,1.5l11.55,27.75c.02.22.08.33.19.33.17,0,.26-.17.29-.5l8.75-26.83c.55-1.5,1.52-2.26,2.91-2.26h13.12c1.56,0,2.07.75,1.52,2.26l-18.09,55.67c-.55,1.51-1.55,2.26-3,2.26h-13.12c-1.17,0-1.96-.5-2.38-1.5l-11.47-27.83c-.07-.22-.17-.33-.28-.33-.06,0-.15.17-.29.5l-8.74,26.91c-.55,1.51-1.52,2.26-2.91,2.26h-13.21c-1.5,0-1.98-.75-1.43-2.26"></path><path class="cls-1" d="M490.75,457.34c1.45,0,1.95.73,1.51,2.17l-3.7,11.37c-.55,1.51-1.52,2.26-2.92,2.26h-33.52c-3.96,0-6.87-1.36-8.72-4.1-1.86-2.73-2.14-6.07-.83-10.03l10.44-31.93c1.7-5.24,3.94-8.9,6.7-10.99,2.76-2.09,6.76-3.13,12-3.13h33.52c1.39,0,1.87.75,1.43,2.26l-3.7,11.37c-.44,1.45-1.39,2.17-2.84,2.17h-28.17c-.5,0-.87.31-1.1.92l-8.75,26.83c-.12.56.07.84.57.84h28.08Z"></path><path class="cls-1" d="M518.41,454.08c1,0,1.32.47.95,1.42l-.59,2.01c-.28.72-.05,1.09.67,1.09h19.98c.78,0,1.28-.36,1.5-1.09l2.15-6.69c.28-.72.02-1.09-.75-1.09h-23.74c-3.84,0-6.65-1.32-8.42-3.97-1.77-2.65-2.05-5.89-.85-9.74l3.11-9.36c1.61-4.96,3.8-8.48,6.56-10.57,2.76-2.09,6.62-3.13,11.58-3.13h26.66c3.84,0,6.65,1.32,8.42,3.97,1.77,2.65,2.05,5.89.85,9.74l-1.28,3.93c-.37.95-1,1.42-1.89,1.42h-13.54c-1,0-1.32-.47-.95-1.42l.59-2.01c.28-.72.05-1.09-.67-1.09h-19.14c-.78,0-1.28.36-1.5,1.09l-2.15,6.69c-.28.73-.03,1.09.75,1.09h23.74c3.84,0,6.65,1.32,8.42,3.97,1.77,2.65,2.05,5.89.85,9.74l-3.11,9.36c-1.67,4.96-3.89,8.48-6.65,10.57-2.76,2.09-6.59,3.13-11.5,3.13h-27.5c-3.84,0-6.67-1.32-8.46-3.97-1.8-2.65-2.07-5.89-.81-9.74l1.28-3.93c.37-.95,1-1.42,1.89-1.42h13.54Z"></path></g><g><path class="cls-1" d="M273.88,420.26h7.44l20.1,46.01h-8.48l-4.63-11.03h-21.61l-4.7,11.03h-8.23l20.1-46.01ZM285.37,448.12l-7.9-18.27-7.83,18.27h15.73Z"></path><path class="cls-1" d="M310.69,420.58h7.44l24.48,31.59v-31.59h7.9v45.69h-6.72l-25.19-32.5v32.5h-7.9v-45.69Z"></path></g><g><path class="cls-1" d="M588.86,443.39v-.13c0-12.99,9.73-23.63,23.5-23.63,8.48,0,13.57,2.94,17.95,7.11l-5.16,5.94c-3.72-3.39-7.57-5.61-12.86-5.61-8.62,0-15.01,7.11-15.01,16.06v.13c0,8.94,6.33,16.19,15.08,16.19,5.61,0,9.2-2.22,13.12-5.87l5.16,5.22c-4.77,4.96-9.99,8.09-18.54,8.09-13.38,0-23.23-10.38-23.23-23.5Z"></path><path class="cls-1" d="M638.52,443.39v-.13c0-12.86,9.92-23.63,23.95-23.63s23.82,10.64,23.82,23.5v.13c0,12.86-9.92,23.62-23.95,23.62s-23.82-10.64-23.82-23.5ZM677.88,443.39v-.13c0-8.88-6.46-16.19-15.53-16.19s-15.4,7.18-15.4,16.06v.13c0,8.87,6.46,16.19,15.53,16.19s15.41-7.18,15.41-16.06Z"></path><path class="cls-1" d="M697.45,420.42h8.55l13.9,21.61,13.9-21.61h8.55v45.69h-8.02v-32.77l-14.43,21.54h-.26l-14.29-21.41v32.63h-7.9v-45.69Z"></path><path class="cls-1" d="M755.53,420.42h18.01c10.7,0,17.36,6.07,17.36,15.27v.13c0,10.25-8.22,15.6-18.27,15.6h-9.07v14.69h-8.03v-45.69ZM772.89,444.18c6.07,0,9.86-3.39,9.86-8.16v-.13c0-5.35-3.85-8.16-9.86-8.16h-9.33v16.44h9.33Z"></path><path class="cls-1" d="M816.75,420.09h7.44l20.1,46.01h-8.48l-4.63-11.03h-21.61l-4.7,11.03h-8.23l20.1-46.01ZM828.23,447.96l-7.9-18.27-7.83,18.27h15.73Z"></path><path class="cls-1" d="M853.55,420.42h7.44l24.48,31.59v-31.59h7.9v45.69h-6.72l-25.19-32.5v32.5h-7.9v-45.69Z"></path><path class="cls-1" d="M919.99,448.09l-18.15-27.67h9.53l12.73,20.17,12.92-20.17h9.2l-18.15,27.48v18.21h-8.09v-18.01Z"></path></g></g></svg> 